ffmpeg started on 2016-11-28 at 09:13:50
Report written to "Output/NVENCh264/results/ffmpeg/old_town_cross_2160p50llhp15000k.log"
Command line:
Tools/ffmpeg/ffmpeg -benchmark -y -i Input/y4m/old_town_cross_2160p50.y4m -c:v h264_nvenc -preset llhp -b:v 15000k -an Output/NVENCh264/encoded/old_town_cross_2160p50llhp15000k.mkv
ffmpeg version N-82227-gdb23fde Copyright (c) 2000-2016 the FFmpeg developers
  built with gcc 5.4.0 (Ubuntu 5.4.0-6ubuntu1~16.04.2) 20160609
  configuration: --prefix=/home/jaroslav/ffmpeg_build --pkg-config-flags=--static --extra-cflags=-I/home/jaroslav/ffmpeg_build/include --extra-ldflags=-L/home/jaroslav/ffmpeg_build/lib --bindir=/home/jaroslav/bin --enable-gpl --enable-libass --enable-libfdk-aac --enable-libfreetype --enable-libmp3lame --enable-libopus --enable-libtheora --enable-libvorbis --enable-libvpx --enable-libx264 --enable-libx265 --enable-nvenc --enable-libmfx --enable-libxvid --enable-libgsm --enable-libopencore-amrnb --enable-version3 --enable-nonfree
  libavutil      55. 35.100 / 55. 35.100
  libavcodec     57. 66.101 / 57. 66.101
  libavformat    57. 57.100 / 57. 57.100
  libavdevice    57.  2.100 / 57.  2.100
  libavfilter     6. 66.100 /  6. 66.100
  libswscale      4.  3.100 /  4.  3.100
  libswresample   2.  4.100 /  2.  4.100
  libpostproc    54.  2.100 / 54.  2.100
Input #0, yuv4mpegpipe, from 'Input/y4m/old_town_cross_2160p50.y4m':
  Duration: 00:00:10.00, start: 0.000000, bitrate: 4976642 kb/s
    Stream #0:0: Video: rawvideo (I420 / 0x30323449), yuv420p(progressive), 3840x2160, SAR 1:1 DAR 16:9, 50 fps, 50 tbr, 50 tbn, 50 tbc
[h264_nvenc @ 0x3495120] The variable bitrate rate-control requires the 'qmin' and/or 'qmax' option set.
Output #0, matroska, to 'Output/NVENCh264/encoded/old_town_cross_2160p50llhp15000k.mkv':
  Metadata:
    encoder         : Lavf57.57.100
    Stream #0:0: Video: h264 (h264_nvenc) (Main) (H264 / 0x34363248), yuv420p, 3840x2160 [SAR 1:1 DAR 16:9], q=-1--1, 15000 kb/s, 50 fps, 1k tbn, 50 tbc
    Metadata:
      encoder         : Lavc57.66.101 h264_nvenc
    Side data:
      cpb: bitrate max/min/avg: 0/0/15000000 buffer size: 30000000 vbv_delay: -1
Stream mapping:
  Stream #0:0 -> #0:0 (rawvideo (native) -> h264 (h264_nvenc))
Press [q] to stop, [?] for help
frame=   10 fps=0.0 q=0.0 size=       0kB time=00:00:00.00 bitrate=N/A speed=   0x    frame=   14 fps= 13 q=0.0 size=       0kB time=00:00:00.00 bitrate=N/A speed=   0x    frame=   23 fps= 14 q=0.0 size=       0kB time=00:00:00.00 bitrate=N/A speed=   0x    frame=   41 fps= 18 q=31.0 size=       1kB time=00:00:00.20 bitrate=  29.8kbits/s speed=0.0904x    frame=   59 fps= 22 q=31.0 size=       1kB time=00:00:00.56 bitrate=  10.7kbits/s speed=0.205x    frame=   65 fps= 20 q=32.0 size=       1kB time=00:00:00.68 bitrate=   8.8kbits/s speed=0.209x    frame=   81 fps= 21 q=32.0 size=       1kB time=00:00:01.00 bitrate=   6.0kbits/s speed=0.264x    frame=   84 fps= 19 q=32.0 size=       1kB time=00:00:01.06 bitrate=   5.6kbits/s speed=0.237x    frame=   88 fps= 17 q=31.0 size=       1kB time=00:00:01.14 bitrate=   5.2kbits/s speed=0.216x    frame=   97 fps= 16 q=32.0 size=       1kB time=00:00:01.32 bitrate=   4.5kbits/s speed=0.224x    frame=  103 fps= 16 q=32.0 size=       1kB time=00:00:01.44 bitrate=   4.2kbits/s speed=0.224x    frame=  107 fps= 15 q=32.0 size=       1kB time=00:00:01.52 bitrate=   3.9kbits/s speed=0.21x    frame=  112 fps= 14 q=32.0 size=       1kB time=00:00:01.62 bitrate=   3.7kbits/s speed=0.197x    frame=  113 fps= 13 q=32.0 size=       1kB time=00:00:01.64 bitrate=   3.6kbits/s speed=0.186x    frame=  115 fps= 12 q=32.0 size=       1kB time=00:00:01.68 bitrate=   3.6kbits/s speed=0.177x    frame=  118 fps= 11 q=32.0 size=       1kB time=00:00:01.74 bitrate=   3.4kbits/s speed=0.165x    frame=  120 fps= 11 q=31.0 size=       1kB time=00:00:01.78 bitrate=   3.4kbits/s speed=0.156x    frame=  124 fps= 10 q=32.0 size=       1kB time=00:00:01.86 bitrate=   3.2kbits/s speed=0.152x    frame=  129 fps=9.9 q=32.0 size=       1kB time=00:00:01.96 bitrate=   3.1kbits/s speed=0.15x    frame=  132 fps=9.3 q=32.0 size=       1kB time=00:00:02.02 bitrate=   3.0kbits/s speed=0.143x    frame=  138 fps=9.3 q=32.0 size=       1kB time=00:00:02.14 bitrate=   2.8kbits/s speed=0.144x    frame=  143 fps=9.3 q=32.0 size=       1kB time=00:00:02.24 bitrate=   2.7kbits/s speed=0.146x    frame=  154 fps=9.6 q=31.0 size=       1kB time=00:00:02.46 bitrate=   2.4kbits/s speed=0.154x    frame=  158 fps=9.6 q=31.0 size=       1kB time=00:00:02.54 bitrate=   2.4kbits/s speed=0.154x    frame=  169 fps=9.9 q=32.0 size=       1kB time=00:00:02.76 bitrate=   2.2kbits/s speed=0.161x    frame=  175 fps=9.7 q=32.0 size=    5143kB time=00:00:02.88 bitrate=14624.1kbits/s speed=0.16x    frame=  184 fps=9.8 q=32.0 size=    5143kB time=00:00:03.06 bitrate=13764.1kbits/s speed=0.163x    frame=  186 fps=9.5 q=32.0 size=    5143kB time=00:00:03.10 bitrate=13586.6kbits/s speed=0.159x    frame=  188 fps=9.2 q=30.0 size=    5143kB time=00:00:03.14 bitrate=13413.5kbits/s speed=0.154x    frame=  191 fps=9.1 q=32.0 size=    5143kB time=00:00:03.20 bitrate=13162.1kbits/s speed=0.152x    frame=  195 fps=8.9 q=32.0 size=    5143kB time=00:00:03.28 bitrate=12841.2kbits/s speed=0.15x    frame=  201 fps=8.9 q=32.0 size=    5143kB time=00:00:03.40 bitrate=12388.1kbits/s speed=0.15x    frame=  204 fps=8.8 q=31.0 size=    5143kB time=00:00:03.46 bitrate=12173.3kbits/s speed=0.149x    frame=  207 fps=8.6 q=32.0 size=    5143kB time=00:00:03.52 bitrate=11965.9kbits/s speed=0.147x    frame=  212 fps=8.5 q=32.0 size=    5143kB time=00:00:03.62 bitrate=11635.4kbits/s speed=0.146x    frame=  216 fps=8.4 q=32.0 size=    5143kB time=00:00:03.70 bitrate=11383.9kbits/s speed=0.144x    frame=  230 fps=8.8 q=31.0 size=    5143kB time=00:00:03.98 bitrate=10583.3kbits/s speed=0.152x    frame=  240 fps=9.0 q=32.0 size=    5143kB time=00:00:04.18 bitrate=10077.0kbits/s speed=0.157x    frame=  249 fps=9.1 q=31.0 size=    5143kB time=00:00:04.36 bitrate=9661.1kbits/s speed=0.16x    frame=  259 fps=9.3 q=32.0 size=    5143kB time=00:00:04.56 bitrate=9237.4kbits/s speed=0.163x    frame=  277 fps=9.7 q=32.0 size=    5143kB time=00:00:04.92 bitrate=8561.7kbits/s speed=0.173x    frame=  294 fps= 10 q=34.0 size=    9055kB time=00:00:05.26 bitrate=14100.2kbits/s speed=0.181x    frame=  312 fps= 11 q=32.0 size=    9055kB time=00:00:05.62 bitrate=13197.2kbits/s speed=0.19x    frame=  330 fps= 11 q=32.0 size=    9055kB time=00:00:05.98 bitrate=12402.8kbits/s speed=0.199x    frame=  348 fps= 11 q=33.0 size=    9055kB time=00:00:06.34 bitrate=11698.7kbits/s speed=0.208x    frame=  366 fps= 12 q=31.0 size=    9055kB time=00:00:06.70 bitrate=11070.2kbits/s speed=0.216x    frame=  384 fps= 12 q=33.0 size=    9055kB time=00:00:07.06 bitrate=10505.8kbits/s speed=0.224x    frame=  395 fps= 12 q=31.0 size=    9055kB time=00:00:07.28 bitrate=10188.3kbits/s speed=0.226x    frame=  413 fps= 13 q=30.0 size=   14177kB time=00:00:07.64 bitrate=15199.0kbits/s speed=0.233x    frame=  430 fps= 13 q=32.0 size=   14177kB time=00:00:07.98 bitrate=14551.5kbits/s speed=0.24x    frame=  448 fps= 13 q=33.0 size=   14177kB time=00:00:08.34 bitrate=13923.5kbits/s speed=0.247x    frame=  466 fps= 14 q=33.0 size=   14177kB time=00:00:08.70 bitrate=13347.4kbits/s speed=0.253x    frame=  477 fps= 14 q=30.0 size=   14177kB time=00:00:08.92 bitrate=13018.2kbits/s speed=0.255x    frame=  495 fps= 14 q=33.0 size=   14177kB time=00:00:09.28 bitrate=12513.3kbits/s speed=0.262x    frame=  500 fps= 14 q=32.0 Lsize=   18256kB time=00:00:09.98 bitrate=14983.8kbits/s speed=0.28x    
video:18251kB audio:0kB subtitle:0kB other streams:0kB global headers:0kB muxing overhead: 0.025993%
bench: utime=1.324s
bench: maxrss=1421008kB
